<?xml version="1.0" standalone="no"?>
<!DOCTYPE svg PUBLIC "-//W3C//DTD SVG 20010904//EN"
 "http://www.w3.org/TR/2001/REC-SVG-20010904/DTD/svg10.dtd">
<svg version="1.0" xmlns="http://www.w3.org/2000/svg"
 width="292.000000pt" height="292.000000pt" viewBox="0 0 292.000000 292.000000"
 preserveAspectRatio="xMidYMid meet">
<metadata>
Created by potrace 1.11, written by Peter Selinger 2001-2013
</metadata>
<g transform="translate(0.000000,292.000000) scale(0.100000,-0.100000)"
fill="#000000" stroke="none">
<path d="M1260 2827 c-3 -3 -36 -8 -75 -11 -78 -6 -85 -7 -173 -31 -70 -18
-147 -53 -238 -107 -32 -20 -92 -54 -132 -75 -82 -44 -154 -98 -168 -128 -75
-154 -115 -219 -235 -372 -83 -105 -108 -162 -110 -254 -1 -42 -10 -128 -21
-190 -38 -235 -9 -603 58 -745 23 -49 72 -92 124 -111 34 -12 52 -26 70 -56
14 -22 43 -63 65 -91 22 -28 52 -76 66 -106 36 -75 149 -203 197 -223 20 -8
64 -26 97 -38 33 -13 92 -43 130 -68 84 -54 118 -70 220 -106 72 -25 89 -27
242 -26 235 1 367 19 525 71 169 56 224 98 497 370 265 265 332 360 394 555
55 175 62 369 17 470 -12 28 -24 76 -25 107 -7 128 -28 221 -74 321 -16 35
-33 84 -36 108 -10 66 -39 142 -74 193 -74 107 -294 299 -400 349 -56 26 -76
30 -160 32 -75 1 -107 6 -144 23 -60 27 -223 70 -297 79 -30 3 -77 17 -105 31
-39 20 -69 27 -140 30 -49 2 -92 2 -95 -1z m290 -1248 c89 -31 111 -71 85
-151 -30 -94 -88 -132 -198 -129 -75 1 -112 24 -143 88 -34 68 -37 135 -8 164
48 47 170 60 264 28z"/>
</g>
</svg>
